<svg id="icons" xmlns="http://www.w3.org/2000/svg" viewBox="0 0 200 200"><path d="M175,33.5H122.5V21a7.5,7.5,0,0,0-7.5-7.5H85A7.5,7.5,0,0,0,77.5,21V33.5H25v15H77.5V61A7.5,7.5,0,0,0,85,68.5h30a7.5,7.5,0,0,0,7.5-7.5V48.5H175Zm-67.5,20h-15v-25h15Z"/><path d="M175,153.5H84.5V141a7.5,7.5,0,0,0-7.5-7.5H47a7.5,7.5,0,0,0-7.5,7.5v12.5H25v15H39.5V181a7.5,7.5,0,0,0,7.5,7.5H77a7.5,7.5,0,0,0,7.5-7.5V168.5H175Zm-105.5,20h-15v-25h15Z"/><path d="M175,93.5H161.5V81a7.5,7.5,0,0,0-7.5-7.5H124a7.5,7.5,0,0,0-7.5,7.5V93.5H25v15h91.5V121a7.5,7.5,0,0,0,7.5,7.5h30a7.5,7.5,0,0,0,7.5-7.5V108.5H175Zm-28.5,20h-15v-25h15Z"/></svg>