<svg id="icons" xmlns="http://www.w3.org/2000/svg" viewBox="0 0 57 44"><path d="M27.541,14.958a2.237,2.237,0,0,1-1.961-.942c-.324-.512-.867-1.37-1.8-1.37a1.5,1.5,0,0,0-1.5,1.559A3.233,3.233,0,0,0,23.3,16.333a5.665,5.665,0,0,0,2.851,1.512V19a1.568,1.568,0,0,0,1.588,1.5A1.628,1.628,0,0,0,29.3,18.746V17.714a4.462,4.462,0,0,0,3.51-4.539A4.038,4.038,0,0,0,30.412,9.3,13.2,13.2,0,0,0,28.2,8.478a13.481,13.481,0,0,1-1.481-.517c-.686-.306-.966-.627-.966-1.108,0-.926.976-1.255,1.811-1.255.681,0,1.469.214,1.7.692a1.783,1.783,0,0,0,1.8,1.23A1.363,1.363,0,0,0,32.47,6.1a3.192,3.192,0,0,0-1.318-2.34A5.417,5.417,0,0,0,29.3,2.789v-1.2A1.594,1.594,0,0,0,27.736,0a1.672,1.672,0,0,0-1.588,1.587V2.754a4.264,4.264,0,0,0-3.509,4.265A3.747,3.747,0,0,0,25.125,10.7a15.646,15.646,0,0,0,1.893.676,8.169,8.169,0,0,1,1.916.752,1.378,1.378,0,0,1,.7,1.214C29.631,14.459,28.581,14.958,27.541,14.958Z"/><path d="M55.018,24.18a6,6,0,0,0-8.475,0l-7.351,7.351-3.181-.007a5.934,5.934,0,0,0,.348-1.993,6,6,0,0,0-5.987-5.993L15.063,23.5h0a2,2,0,0,0-1.414.586l-4.4,4.4H2a2,2,0,1,0,0,4h8.071a2,2,0,0,0,1.414-.586l4.4-4.4,14.482.036a1.988,1.988,0,0,1,.121,3.973l-9.927-.023h0a2,2,0,0,0,0,4l9.688.023c.043,0,.083.012.127.012.079,0,.157-.008.236-.012l9.411.022h0a2,2,0,0,0,1.414-.586l7.939-7.939a1.993,1.993,0,0,1,2.818,2.818L42.017,40H2a2,2,0,0,0,0,4H42.846a2,2,0,0,0,1.414-.586L55.018,32.655a5.993,5.993,0,0,0,0-8.475Z"/></svg>