<svg id="icons" xmlns="http://www.w3.org/2000/svg" viewBox="0 0 44 57"><circle cx="15.978" cy="17.047" r="4"/><path d="M39.975,2.865h-7.6V2.111a2,2,0,1,0-4,0v.754h-7.6v11h7.6v3.941l-4.139,6.371-6.7-2.079-.007,0-.022-.007c-.009,0-.018,0-.027-.006-.05-.014-.1-.022-.155-.032s-.123-.031-.186-.038c-.023,0-.046,0-.069-.006l-.019,0c-.027,0-.053,0-.08,0s-.045,0-.068,0c-.05,0-.1,0-.147,0s-.069.008-.1.012l-.03.006c-.041.006-.08.016-.119.024s-.087.014-.129.026-.072.024-.107.036l-.013,0c-.045.016-.089.036-.133.055s-.074.027-.11.045-.063.036-.094.055l-.019.012a1.91,1.91,0,0,0-.176.116c-.013.009-.027.015-.04.025l-.008.006-.021.017L8.793,27.81a1.979,1.979,0,0,0-.47.525L5.262,33.3a2,2,0,1,0,3.405,2.1l2.873-4.661,3.071-2.4-.552,8.1L9.444,45.006l-5.154,9a2,2,0,1,0,3.471,1.988l5.179-9.046,3.381-6.279,5.657,7.368V55a2,2,0,0,0,4,0V47.357a2,2,0,0,0-.413-1.217l-7.493-9.758.663-9.724L24.5,28.445a2,2,0,0,0,2.27-.82l1.809-2.785a2,2,0,0,0,3.8-.858V13.865h7.6Zm-4,7h-11.2v-3h11.2Z"/></svg>