<svg id="icons" xmlns="http://www.w3.org/2000/svg" viewBox="0 0 44 44"><path d="M41.42,29.363,40.1,27.07A1,1,0,0,0,38.73,26.7L37,27.7a1,1,0,0,0-.366,1.366l1.324,2.293a2,2,0,0,1-1.733,3H24V31.8a1.171,1.171,0,0,0-1.885-.929l-6.056,4.653a1.172,1.172,0,0,0,0,1.858l6.056,4.652A1.171,1.171,0,0,0,24,41.1V38.363H36.223a6,6,0,0,0,5.2-9Z"/><path d="M15.846,8.386l1.732,1a1,1,0,0,0,1.366-.366l1.324-2.293a2,2,0,0,1,3.464,0l6.408,11.1-2.405,1.388a1.172,1.172,0,0,0,.138,2.1l7.057,2.918a1.172,1.172,0,0,0,1.609-.929l1-7.57a1.172,1.172,0,0,0-1.747-1.169L33.6,15.825,27.2,4.727a6,6,0,0,0-10.392,0L15.48,7.02A1,1,0,0,0,15.846,8.386Z"/><path d="M16.19,21.042l-1-7.571a1.172,1.172,0,0,0-1.609-.929L6.523,15.461a1.171,1.171,0,0,0-.138,2.1l2.258,1.3L2.58,29.363a6,6,0,0,0,5.2,9h2.647a1,1,0,0,0,1-1v-2a1,1,0,0,0-1-1H7.777a2,2,0,0,1-1.733-3l6.063-10.5,2.336,1.349A1.171,1.171,0,0,0,16.19,21.042Z"/></svg>