<svg id="icons" xmlns="http://www.w3.org/2000/svg" viewBox="0 0 46 44"><rect x="2" y="40" width="12" height="4" rx="2"/><rect x="18" y="40" width="24" height="4" rx="2"/><rect x="10" y="32" width="36" height="4" rx="2"/><path d="M35,2a10.943,10.943,0,0,0-5.068,1.243A11.982,11.982,0,0,0,16.863,1.035,12,12,0,1,0,12,24h3.411a9.973,9.973,0,0,0,15.973,0H35A11,11,0,0,0,35,2Zm0,18H29.047a5.99,5.99,0,0,1-11.3,0H12A8,8,0,0,1,12,4c.255,0,.507.015.756.038a7.944,7.944,0,0,1,4.105,1.623,7.979,7.979,0,0,1,4.1-1.622c.254-.024.51-.039.771-.039A8.053,8.053,0,0,1,29.2,9.086,7.035,7.035,0,0,1,32.413,6.5,7,7,0,1,1,35,20Z"/></svg>