<svg id="icons" xmlns="http://www.w3.org/2000/svg" viewBox="0 0 74 58"><path d="M55.588,50.711A8.711,8.711,0,1,0,46.878,42,8.721,8.721,0,0,0,55.588,50.711ZM51.145,43.5h2.943v2.943A4.7,4.7,0,0,1,51.145,43.5Zm5.943,2.943V43.5h2.943A4.7,4.7,0,0,1,57.088,46.443ZM60.031,40.5H57.088V37.557A4.7,4.7,0,0,1,60.031,40.5Zm-5.943-2.943V40.5H51.145A4.7,4.7,0,0,1,54.088,37.557Z"/><path d="M18.3,50.711A8.711,8.711,0,1,0,9.594,42,8.721,8.721,0,0,0,18.3,50.711ZM13.861,43.5H16.8v2.943A4.7,4.7,0,0,1,13.861,43.5ZM19.8,46.443V43.5h2.943A4.7,4.7,0,0,1,19.8,46.443ZM22.747,40.5H19.8V37.557A4.7,4.7,0,0,1,22.747,40.5ZM16.8,37.557V40.5H13.861A4.7,4.7,0,0,1,16.8,37.557Z"/><path d="M71,22H69.946V12h3.946L69.128,0H4.765L0,12H3.946V22H3.265L.256,32h3.69V58h66V32H74Zm-2.744,6H5.637l.6-2H67.655ZM14.944,16h0a3.987,3.987,0,0,1,2-3.444V18h4V12.556a3.987,3.987,0,0,1,2,3.444h0v6h-8Zm44,0v6h-8V16h0a3.987,3.987,0,0,1,2-3.442V18h4V12.554a3.986,3.986,0,0,1,2,3.446ZM25.866,12h4.3a7.941,7.941,0,0,0-1.083,4h0v6h-2.13V16h0A7.94,7.94,0,0,0,25.866,12Zm7.208,4h0a3.992,3.992,0,0,1,1.868-3.372V18h4V12.484A3.988,3.988,0,0,1,41.078,16h0v6h-8Zm12,0h0A7.94,7.94,0,0,0,44,12H48.03a7.94,7.94,0,0,0-1.082,4h0v6h-1.87Zm20.872,6h-3V16h0a7.94,7.94,0,0,0-1.082-4h4.08Zm.466-18,1.48,3.728H6L7.481,4ZM7.946,12H12.03a7.94,7.94,0,0,0-1.082,4h0v6h-3Zm25,42V44h0a4,4,0,0,1,8,0h0V54Zm33,0h-21V44h0a8,8,0,0,0-16,0h0V54h-21V32h58Z"/></svg>