<svg id="icons" xmlns="http://www.w3.org/2000/svg" viewBox="0 0 44 51"><path d="M22,27a8.009,8.009,0,0,1-8-8H10a12,12,0,0,0,24,0H30A8.009,8.009,0,0,1,22,27Z"/><path d="M32,33.705a10,10,0,0,0-4.281.866,17.768,17.768,0,0,1-5.719,1,17.768,17.768,0,0,1-5.719-1A10,10,0,0,0,12,33.705,10.991,10.991,0,0,0,1.177,46.53a11.713,11.713,0,0,0,1.357,3.712l.13.236A1.007,1.007,0,0,0,3.546,51H40.454a1.007,1.007,0,0,0,.882-.522l.13-.236a11.713,11.713,0,0,0,1.357-3.712A10.991,10.991,0,0,0,32,33.705Zm6.806,12.5a1.016,1.016,0,0,1-.99.793H6.184a1.016,1.016,0,0,1-.99-.793A6.972,6.972,0,0,1,12,37.705a6.037,6.037,0,0,1,2.766.568A21.762,21.762,0,0,0,22,39.573a21.767,21.767,0,0,0,7.234-1.3A6.037,6.037,0,0,1,32,37.705a6.972,6.972,0,0,1,6.806,8.5Z"/><path d="M7.782,17H36.218a2,2,0,0,0,0-4h-2.4A12.013,12.013,0,0,0,25,3.4V1.745a1,1,0,0,0-1-1H20a1,1,0,0,0-1,1V3.4A12.013,12.013,0,0,0,10.181,13h-2.4a2,2,0,0,0,0,4ZM19,7.589V9.745a1,1,0,0,0,1,1h4a1,1,0,0,0,1-1V7.589A8.027,8.027,0,0,1,29.737,13H14.263A8.025,8.025,0,0,1,19,7.589Z"/></svg>