<svg id="icons" xmlns="http://www.w3.org/2000/svg" viewBox="0 0 58 44"><path d="M20.929,24a12,12,0,1,1,12-12A12.013,12.013,0,0,1,20.929,24Zm0-20a8,8,0,1,0,8,8A8.009,8.009,0,0,0,20.929,4Z"/><path d="M20.966,44H2.475a1.007,1.007,0,0,1-.882-.522l-.13-.236A11.69,11.69,0,0,1,.105,39.53,10.991,10.991,0,0,1,10.929,26.705a10,10,0,0,1,4.28.866,17.774,17.774,0,0,0,5.72,1,17.773,17.773,0,0,0,5.719-1,10,10,0,0,1,4.281-.866A10.991,10.991,0,0,1,41.752,39.53a11.69,11.69,0,0,1-1.358,3.712l-.13.236a1.007,1.007,0,0,1-.882.522H20.966ZM13.694,31.273a6.031,6.031,0,0,0-2.765-.568,6.972,6.972,0,0,0-6.806,8.5,1.016,1.016,0,0,0,.99.793H36.744a1.016,1.016,0,0,0,.99-.793,6.972,6.972,0,0,0-6.805-8.5,6.032,6.032,0,0,0-2.766.568,21.767,21.767,0,0,1-7.234,1.3A21.773,21.773,0,0,1,13.694,31.273Z"/><polygon points="43.555 28.72 35.558 20.723 38.386 17.895 43.555 23.063 55.219 11.399 58.047 14.228 43.555 28.72"/></svg>