<svg id="icons" xmlns="http://www.w3.org/2000/svg" viewBox="0 0 44 44"><path d="M23.108,31.4a38.707,38.707,0,0,0,3.473-8.634,11.994,11.994,0,0,0,15.038-5.054,12,12,0,0,0-14.265,1.7c.274-1.447.479-2.934.614-4.452A11.992,11.992,0,0,0,23.287,0a12,12,0,0,0,1.69,14.767,42.718,42.718,0,0,1-.9,5.705A12,12,0,0,0,8.834,17.711a11.992,11.992,0,0,0,14.6,5.224,34.416,34.416,0,0,1-3.654,8.308A14.008,14.008,0,0,0,2.381,28.5,14,14,0,0,0,16.7,35.314C13.371,38.887,9.3,41,4.894,41a1.5,1.5,0,1,0,0,3c6.6,0,12.562-3.955,16.8-10.287A14,14,0,0,0,40.647,28.5,14.007,14.007,0,0,0,23.108,31.4Z"/></svg>