<svg id="icons" xmlns="http://www.w3.org/2000/svg" viewBox="0 0 44 44"><path d="M22,8a4,4,0,1,0,4,4A4,4,0,0,0,22,8Zm0,6a2,2,0,1,1,2-2A2,2,0,0,1,22,14Z"/><path d="M22,17.8a4,4,0,1,0,4,4A4,4,0,0,0,22,17.8Zm0,6a2,2,0,1,1,2-2A2,2,0,0,1,22,23.8Z"/><path d="M22,27.6a4,4,0,1,0,4,4A4,4,0,0,0,22,27.6Zm0,6a2,2,0,1,1,2-2A2,2,0,0,1,22,33.6Z"/><path d="M36,18.02H32V14.962a7.991,7.991,0,0,0,4-6.921H32V1a1,1,0,0,0-1-1H13a1,1,0,0,0-1,1V8.041H8a7.991,7.991,0,0,0,4,6.921V18.02H8a7.989,7.989,0,0,0,4,6.921V28H8a7.992,7.992,0,0,0,4.048,6.95,10,10,0,0,0,19.9,0A7.992,7.992,0,0,0,36,28H32V24.941A7.989,7.989,0,0,0,36,18.02ZM28,28v6a6,6,0,0,1-12,0V4H28V28Z"/></svg>