<svg id="icons" xmlns="http://www.w3.org/2000/svg" viewBox="0 0 72 51"><rect x="55.994" y="31" width="4" height="4"/><rect x="55.994" y="36.931" width="4" height="4"/><rect x="61.856" y="31" width="4" height="4"/><rect x="61.925" y="36.931" width="4" height="4"/><path d="M71.256,25.54a2,2,0,0,0-1.41-.582h-.011l-17.928.1a2,2,0,0,0-1.99,2V40.931H45.855V25h8.069a2,2,0,0,0,1.107-3.666L37.855,9.928V5.5h8.069V0H33.855V9.933L16.812,21.339A2,2,0,0,0,17.924,25h7.931v15.93H21.929V27.056a2,2,0,0,0-1.989-2l-17.929-.1A2.08,2.08,0,0,0,.59,25.54,2,2,0,0,0,0,26.958V48.9a2,2,0,0,0,1.989,2l17.929.1h32.01l17.929-.1a2,2,0,0,0,1.989-2V26.958A2,2,0,0,0,71.256,25.54ZM17.929,46.989,4,46.913V28.969l13.929.076Zm23.926-6.058H37.923V25h3.932ZM24.509,21,35.86,13.4,47.3,21H24.509Zm5.346,4h4.068v15.93H29.855Zm20.062,19.93V47H21.929V44.931Zm17.929,1.982-13.929.076V29.045l13.929-.076Z"/><rect x="11.852" y="31" width="4" height="4"/><rect x="11.852" y="36.931" width="4" height="4"/><rect x="5.991" y="31" width="4" height="4"/><rect x="5.921" y="36.931" width="4" height="4"/></svg>