<svg id="icons" xmlns="http://www.w3.org/2000/svg" viewBox="0 0 48 47"><path d="M20.988,22.532a2,2,0,1,0,.732,2.732A1.989,1.989,0,0,0,20.988,22.532Z"/><path d="M38.308,32.532a2,2,0,1,0,.732,2.732A1.989,1.989,0,0,0,38.308,32.532Z"/><path d="M47.673,24.114a3.1,3.1,0,0,0-1.527-3.1L27.045,9.985a3.1,3.1,0,0,0-3.45.228L18.45,14.17a3.065,3.065,0,0,0-.625.668c-.1,0-.208-.02-.311-.02a6,6,0,0,0-5.2,3L10.44,21.061a6,6,0,0,0,.55,6.788l-1.2,2.075a2,2,0,1,0,3.464,2l1-1.732L35.171,42.268l-1,1.732a2,2,0,0,0,3.464,2l1.2-2.084a5.937,5.937,0,0,0,.929.081,6,6,0,0,0,5.2-3l1.871-3.242a5.993,5.993,0,0,0-.254-6.392,3.086,3.086,0,0,0,.233-.813ZM25.579,14.008,43.4,24.294l-.539,4.057L22.334,16.5ZM43.188,35.646l-1.872,3.242a1.78,1.78,0,0,1-2.435.652L14.745,25.605a1.785,1.785,0,0,1-.653-2.435l1.872-3.242a1.783,1.783,0,0,1,2.436-.653L42.536,33.21a1.784,1.784,0,0,1,.652,2.436Z"/><path d="M9.124,10.806,8.473,8.461l2.346.651a2,2,0,0,0,2.275-.943l1.2-2.119,1.2,2.119a2,2,0,0,0,2.275.943l5.753-1.6a2,2,0,1,0-1.069-3.855L18.2,4.84,16.034,1a2,2,0,0,0-3.482,0L10.382,4.84,6.135,3.661A2,2,0,0,0,3.673,6.123L4.852,10.37,1.015,12.54a2,2,0,0,0,0,3.482l3.837,2.17L3.673,22.439A2,2,0,0,0,5.066,24.9a2.029,2.029,0,0,0,.536.073,2,2,0,0,0,1.926-1.466l1.6-5.753a2,2,0,0,0-.943-2.275l-2.119-1.2,2.119-1.2A2,2,0,0,0,9.124,10.806Z"/></svg>