<svg id="icons" xmlns="http://www.w3.org/2000/svg" viewBox="0 0 57 44"><path d="M56.847,36.184a1.968,1.968,0,0,0-.058-.409c-.011-.044-.026-.086-.04-.13a1.925,1.925,0,0,0-.145-.336c-.013-.024-.018-.051-.032-.075l-8.355-14A1.983,1.983,0,0,0,47.2,20.4l2.719-2.733A2,2,0,0,0,49.97,14.9L36.823.645A2,2,0,0,0,35.407,0a1.965,1.965,0,0,0-1.449.566L13.743,20.26H10.5a2,2,0,0,0-1.717.974l-8.355,14c-.014.024-.019.051-.032.075a1.925,1.925,0,0,0-.145.336c-.014.044-.029.086-.04.13a1.968,1.968,0,0,0-.058.409c0,.022-.007.042-.007.064V44h4V38.26h48.71V44h4V36.248C56.854,36.226,56.848,36.206,56.847,36.184ZM35.276,4.868,45.731,16.207,33.844,28.157,23.259,28.2,17.4,22.285ZM5.668,34.26l5.968-10h2.087l4.058,4.1a2,2,0,0,0,.76,3.849H38.522a2,2,0,0,0,.764-3.847l4.077-4.1h2l5.968,10Z"/><path d="M29.208,24.371l2.809-2.825.907,2.383a1,1,0,1,0,1.869-.71l-1.228-3.228,4.106-4.128-2.836-2.82L32,15.888l-.885-2.327a1,1,0,1,0-1.869.711l1.206,3.172-4.084,4.107Z"/></svg>