<svg id="icons" xmlns="http://www.w3.org/2000/svg" viewBox="0 0 44 44"><circle cx="23.953" cy="4" r="4"/><path d="M2,35.824h8a2,2,0,1,0,0-4H2a2,2,0,0,0,0,4Z"/><path d="M31.82,33.824a2,2,0,0,0,2,2H42a2,2,0,1,0,0-4H33.82A2,2,0,0,0,31.82,33.824Z"/><path d="M42,40H34.806L22.161,23.53l1.618-7.01,2.472,4.451a2,2,0,0,0,1.416,1l8,1.351a2.022,2.022,0,0,0,.335.029,2,2,0,0,0,.331-3.973l-7.052-1.191-4.532-8.16c-.006-.01-.014-.017-.019-.027s-.008-.019-.014-.028l-.011-.016c-.032-.051-.071-.1-.107-.145s-.067-.1-.105-.14l-.026-.031c-.036-.039-.079-.07-.118-.106s-.094-.091-.145-.13c-.01-.007-.018-.015-.027-.022-.04-.029-.086-.05-.128-.076-.058-.036-.114-.074-.175-.1l-.032-.017c-.041-.019-.088-.03-.131-.047-.065-.024-.129-.051-.2-.069l-.045-.013-.019-.006c-.042-.01-.083-.009-.124-.016a1.74,1.74,0,0,0-.19-.028l-.053,0c-.058,0-.114,0-.171.006s-.106,0-.16.008l-.057.008c-.061.009-.119.027-.179.042s-.1.021-.145.037l-.054.018a1.929,1.929,0,0,0-.179.082c-.036.017-.074.027-.109.047A.261.261,0,0,0,22,9.27l-.029.013-.031.019h0l-8.967,5.366A2,2,0,0,0,12,16.385V22.3a2,2,0,0,0,4,0V17.519l4-2.391L18.04,23.6l-1.888,9.309L9.163,40H2a2,2,0,0,0,0,4H42a2,2,0,0,0,0-4ZM19.418,35.3a2.012,2.012,0,0,0,.536-1.007l1.133-5.59L29.763,40H14.781Z"/></svg>