<svg id="icons" xmlns="http://www.w3.org/2000/svg" viewBox="0 0 44 44"><path d="M43.538,20.746l-3.663-3.628V10.4a2,2,0,1,0-4,0v2.757l-.092-.091-.005,0L23.341.746A2.03,2.03,0,0,0,21.924.167a2,2,0,0,0-1.411.592L4.78,16.648a2.016,2.016,0,0,0-.384.388L.709,20.759a2,2,0,1,0,2.843,2.815l.442-.447v21.04H39.875V22.747l.848.84a2,2,0,0,0,2.815-2.841ZM7.994,32.063h3.912L9.583,34.9a2,2,0,0,0,1.547,3.268h4.213l-1.976,2H7.994Zm27.881,8.1H18.99l2.563-2.595a2,2,0,0,0-1.423-3.405H15.354l2.323-2.836a2,2,0,0,0-1.547-3.268H7.994V19.088L21.948,5,29.5,12.478H24.13a2,2,0,0,0-1.385,3.442l4.418,4.247H24.13a2,2,0,0,0-1.434.606l-4,4.117a2,2,0,1,0,2.869,2.787l3.411-3.51H32.13a2,2,0,0,0,1.386-3.442L29.1,16.478h4.446l2.331,2.308Z"/></svg>