<svg id="icons" xmlns="http://www.w3.org/2000/svg" viewBox="0 0 44 44"><path d="M21.7,14.958a2.237,2.237,0,0,1-1.962-.941c-.324-.513-.865-1.371-1.8-1.371a1.5,1.5,0,0,0-1.5,1.56,3.236,3.236,0,0,0,1.02,2.127,5.671,5.671,0,0,0,2.852,1.512V19A1.568,1.568,0,0,0,21.9,20.5a1.628,1.628,0,0,0,1.559-1.754V17.713a4.46,4.46,0,0,0,3.509-4.539A4.036,4.036,0,0,0,24.573,9.3a13.187,13.187,0,0,0-2.207-.826,13.408,13.408,0,0,1-1.481-.517c-.687-.305-.967-.627-.967-1.109,0-.926.977-1.255,1.812-1.255.68,0,1.468.215,1.7.692a1.759,1.759,0,0,0,1.8,1.231A1.364,1.364,0,0,0,26.632,6.1,3.2,3.2,0,0,0,25.313,3.76a5.419,5.419,0,0,0-1.856-.971v-1.2A1.594,1.594,0,0,0,21.9,0,1.672,1.672,0,0,0,20.31,1.587V2.754A4.264,4.264,0,0,0,16.8,7.019,3.748,3.748,0,0,0,19.286,10.7a15.812,15.812,0,0,0,1.893.675,8.211,8.211,0,0,1,1.916.753,1.376,1.376,0,0,1,.7,1.213C23.792,14.458,22.743,14.958,21.7,14.958Z"/><path d="M38.007,10a6,6,0,0,0-5.992,5.993v6.748a5.972,5.972,0,0,0-6.228,1.4L22,27.887l-3.765-3.738a5.975,5.975,0,0,0-6.253-1.4V15.993A5.993,5.993,0,1,0,0,15.993V33.98a2,2,0,0,0,.583,1.411l7.985,8.02A2,2,0,0,0,11.4,40.589L4,33.154V15.993a1.993,1.993,0,1,1,3.985,0V30.048a2,2,0,0,0,.594,1.422l6.014,5.952a2,2,0,0,0,2.814-2.844l-4.741-4.691c-.026-.03-.046-.063-.075-.091a2,2,0,0,1,0-2.818,2.036,2.036,0,0,1,2.823,0L20,31.536V42a2,2,0,0,0,4,0V31.538l4.608-4.56a2.039,2.039,0,0,1,2.818,0,1.992,1.992,0,0,1,0,2.818h0l-4.833,4.781a2,2,0,1,0,2.814,2.844l6.014-5.952a2,2,0,0,0,.594-1.422V15.993a1.993,1.993,0,1,1,3.985,0V33.206l-7.4,7.378a2,2,0,1,0,2.824,2.832l7.985-7.964A2,2,0,0,0,44,34.036V15.993A6,6,0,0,0,38.007,10Z"/></svg>