<svg id="icons" xmlns="http://www.w3.org/2000/svg" viewBox="0 0 77 46"><path d="M20.4,26.1H12.225a2,2,0,0,0-2,2V34a2,2,0,0,0,2,2H20.4a2,2,0,0,0,2-2V28.1A2,2,0,0,0,20.4,26.1Zm-2,5.9H14.225V30.1H18.4Z"/><path d="M20.4,14.1H12.225a2,2,0,0,0-2,2V22a2,2,0,0,0,2,2H20.4a2,2,0,0,0,2-2V16.1A2,2,0,0,0,20.4,14.1Zm-2,5.9H14.225V18.1H18.4Z"/><path d="M26.225,24H34.4a2,2,0,0,0,2-2V16.1a2,2,0,0,0-2-2H26.225a2,2,0,0,0-2,2V22A2,2,0,0,0,26.225,24Zm2-5.9H32.4V20H28.225Z"/><path d="M75.837,26.366,72.48,24V21a2,2,0,0,0-4,0v.186l-6.849-4.821a2,2,0,0,0-2.316.01l-13.96,10a2,2,0,1,0,2.33,3.251l.795-.569V46h24V28.894l1.055.743a2,2,0,0,0,2.3-3.271ZM62.568,42H58.391V31.1h4.177Zm5.912,0H66.568V29.1a2,2,0,0,0-2-2H56.391a2,2,0,0,0-2,2V42H52.48V26.192l8.01-5.737,7.99,5.624Z"/><path d="M45.985,16.994a2,2,0,0,0-.572-2.77l-3.1-2.038V9a2,2,0,0,0-4,0v.553L24.29.329a2,2,0,0,0-2.211.008L1.2,14.3a2,2,0,1,0,2.224,3.325l.888-.594V46h38V16.973l.9.593A2,2,0,0,0,45.985,16.994ZM32.4,42H28.225V30.1H32.4Zm5.912,0H36.4V28.1a2,2,0,0,0-2-2H26.225a2,2,0,0,0-2,2V42H8.314V14.357L23.2,4.4l15.114,9.942Z"/></svg>