<svg id="icons" xmlns="http://www.w3.org/2000/svg" viewBox="0 0 60 60"><path d="M59.476,28.574,31.414.512a2.058,2.058,0,0,0-2.828,0L.524,28.574a2,2,0,0,0,0,2.828L28.586,59.464a2,2,0,0,0,2.828,0L59.476,31.4A2,2,0,0,0,59.476,28.574ZM30,55.222,4.767,29.988,30,4.755,55.233,29.988Z"/><path d="M28,10.345v7.622a7.428,7.428,0,0,0-9.985,10.1H10.282v4h7.661A7.423,7.423,0,0,0,28,42.009v7.772h4V42.009a7.421,7.421,0,0,0,10.057-9.946h7.661v-4H41.985A7.426,7.426,0,0,0,32,17.967V10.345ZM24.566,21.12A3.438,3.438,0,0,1,28,24.554v3.434H24.566a3.434,3.434,0,1,1,0-6.868Zm0,17.736a3.433,3.433,0,0,1-.707-6.793H28v3.359A3.438,3.438,0,0,1,24.566,38.856Zm14.3-3.434a3.434,3.434,0,0,1-6.868,0V32.063h4.141A3.439,3.439,0,0,1,38.868,35.422Zm-3.434-14.3a3.434,3.434,0,1,1,0,6.868H32V24.554A3.437,3.437,0,0,1,35.434,21.12Z"/></svg>