<svg id="icons" xmlns="http://www.w3.org/2000/svg" viewBox="0 0 44 44"><path d="M35.252,11.576l5.334,5.334A2,2,0,0,0,44,15.5V2a2,2,0,0,0-2-2H28.5A2,2,0,0,0,27.09,3.414l5.334,5.334L22,19.172,11.576,8.748,16.91,3.414A2,2,0,0,0,15.5,0H2A2,2,0,0,0,0,2V15.5A2,2,0,0,0,3.414,16.91l5.334-5.334L19.172,22,8.748,32.424,3.414,27.09A2,2,0,0,0,0,28.5V42a2,2,0,0,0,2,2H15.5a2,2,0,0,0,1.414-3.414l-5.334-5.334L22,24.828,32.424,35.252,27.09,40.586A2,2,0,0,0,28.5,44H42a2,2,0,0,0,2-2V28.5a2,2,0,0,0-3.414-1.414l-5.334,5.334L24.828,22ZM40,4v6.667L33.333,4ZM4,4h6.667L4,10.667ZM4,40V33.333L10.667,40Zm36,0H33.333L40,33.333Z"/></svg>