<svg id="icons" xmlns="http://www.w3.org/2000/svg" viewBox="0 0 69 61"><rect x="29.458" y="31.076" width="4" height="4"/><rect x="35.458" y="31.076" width="4" height="4"/><rect x="39.488" y="17.076" width="4" height="4"/><rect x="45.488" y="17.076" width="4" height="4"/><rect x="48.458" y="39.077" width="4" height="4"/><rect x="54.458" y="39.077" width="4" height="4"/><rect x="48.458" y="47.077" width="4" height="4"/><rect x="29.458" y="39.076" width="4" height="4"/><rect x="35.458" y="39.076" width="4" height="4"/><rect x="29.458" y="47.076" width="4" height="4"/><rect x="35.458" y="47.076" width="4" height="4"/><rect x="17.458" y="39.076" width="4" height="4"/><rect x="17.458" y="47.076" width="4" height="4"/><path d="M37.517,16.329,51.458,9.566V30.373a2,2,0,0,0,1.151,1.81l8.871,4.164v4.729h4v-6a2,2,0,0,0-1.15-1.81L55.458,29.1V.208h-4V5.12L34.644,13.277a2,2,0,0,0-1.127,1.8v6h4Z"/><path d="M65.48,53.873a5.2,5.2,0,1,0-4,0V57H45.554V27.076a2,2,0,0,0-1.371-1.9l-18.095-6a2,2,0,0,0-2.63,1.9v8H7.654a2,2,0,0,0-2,2v4h4v-2h13.8V57H9.654V52.125a7.332,7.332,0,1,0-4,0V57H1.278v4H68.1V57H65.48Zm-2-5.994a1.2,1.2,0,1,1-1.2,1.2A1.2,1.2,0,0,1,63.48,47.879Zm-59.158-2.8a3.333,3.333,0,1,1,3.332,3.333A3.336,3.336,0,0,1,4.322,45.076Zm23.136-14v-7.23l14.1,4.674V57h-14.1Z"/></svg>