<svg id="icons" xmlns="http://www.w3.org/2000/svg" viewBox="0 0 59 44"><path d="M58.755,42a2,2,0,0,0-1.965-2V32h-3.9V24h2.022a2,2,0,0,0,0-4H52.856A18.025,18.025,0,0,0,36.974,4.118V2a2,2,0,0,0-4,0V4.118A17.948,17.948,0,0,0,22,9.555V2a2,2,0,1,0-4,0V4H4V2A2,2,0,0,0,0,2V44H56.79v0A2,2,0,0,0,58.755,42ZM48.886,32H43.371V24h5.515ZM14.645,23.974a2.073,2.073,0,0,0,.263.026h2.154v4H8.606ZM13.4,20,4,26.263V20ZM8.606,16,18,9.737V16ZM13.4,32,4,38.263V32ZM22,30.012V24h5.371v8H22ZM31.371,32V24.033h8V32Zm3.6-24a14.009,14.009,0,0,1,13.84,12H22V16.762A14.017,14.017,0,0,1,34.974,8ZM13.4,8,4,14.263V8Zm-.64,32H8.606l6.185-4.123V40ZM22,40V36h5.371v.033h16V36H52.79v4Z"/></svg>