<svg id="icons" xmlns="http://www.w3.org/2000/svg" viewBox="0 0 54 44"><path d="M3.954,4V4m3-4h-6a1,1,0,0,0-1,1V19a1,1,0,0,0,1,1H2.011V44h4V20h.947a1,1,0,0,0,1-1V1a1,1,0,0,0-1-1Z"/><circle cx="21.95" cy="30" r="2"/><circle cx="41.95" cy="30" r="2"/><path d="M53.046,12.1H52.1V4.471a.969.969,0,0,0-.463-.811C50.159,2.7,44.869,0,32.1,0,19.365,0,14.07,2.611,12.574,3.552a.969.969,0,0,0-.473.819V12H10.95a1,1,0,0,0-1,1v6a1,1,0,0,0,1,1H12.1V36.9a1.061,1.061,0,0,0,1.112,1l2.747.008c0,.033-.01.063-.01.1v2a4,4,0,0,0,4,4h2a4,4,0,0,0,4-4V38c0-.023-.007-.045-.007-.069l12.011.033c0,.013,0,.024,0,.036v2a4,4,0,0,0,4,4h2a4,4,0,0,0,4-4V37.992L50.981,38h0A1.062,1.062,0,0,0,52.1,37V20.1h.945a1,1,0,0,0,1-1v-6A1,1,0,0,0,53.046,12.1ZM21.95,40h-2V38h2Zm22,0h-2V38h2ZM16.1,12h32v.826a.975.975,0,0,0-.055.269v6a.975.975,0,0,0,.055.269V22h-32Zm16-8c9.05,0,13.836,1.4,16,2.322V8h-32V6.25C18.287,5.355,23.086,4,32.1,4Zm-16,29.9V26h32v7.991Z"/></svg>