<svg id="icons" xmlns="http://www.w3.org/2000/svg" viewBox="0 0 96 48"><path d="M42.338,27.732a10.139,10.139,0,0,0-2.226.253l-3.948-8.834a1.953,1.953,0,0,0-1.842-1.184l-4,.032a2,2,0,0,0,.015,4h.017l2.692-.021,1.026,2.3-14.016,2a2.009,2.009,0,0,0-1.094.529L16.03,29.582a10.129,10.129,0,1,0,4.109,10.284h5.672a2,2,0,0,0,1.508-.687L36.183,29l.279.624a10.123,10.123,0,1,0,5.876-1.888ZM10.2,44a6.134,6.134,0,1,1,2.827-11.572l-4.2,3.987A2,2,0,0,0,10.2,39.866H16A6.14,6.14,0,0,1,10.2,44Zm14.7-8.134H20.139a10.051,10.051,0,0,0-1.358-3.38l2.471-2.344,9.853-1.405ZM42.338,44A6.125,6.125,0,0,1,38.15,33.4l2.362,5.285a2,2,0,0,0,3.652-1.632L41.8,31.759c.178-.015.357-.027.539-.027a6.134,6.134,0,1,1,0,12.268Z"/><path d="M17.153,26h4a2,2,0,0,0,0-4h-4a2,2,0,1,0,0,4Z"/><circle cx="65.352" cy="36" r="2"/><circle cx="85.352" cy="36" r="2"/><path d="M91.936,28.848a3.08,3.08,0,0,0-.205-.821l-2.477-6a3.1,3.1,0,0,0-2.874-1.924H64.324a3.1,3.1,0,0,0-2.874,1.922l-2.476,6a3.042,3.042,0,0,0-.207.884,6,6,0,0,0-3.285,5.345V38a6,6,0,0,0,3.87,5.6V46a2,2,0,0,0,4,0V44H87.5v2a2,2,0,0,0,2,2h0a2,2,0,0,0,2-2V43.6A6,6,0,0,0,95.352,38V34.256A5.994,5.994,0,0,0,91.936,28.848ZM61.482,39.783A1.784,1.784,0,0,1,59.7,38V34.256a1.784,1.784,0,0,1,1.782-1.782h27.87a1.784,1.784,0,0,1,1.783,1.782V38a1.785,1.785,0,0,1-1.783,1.783Zm3.583-15.461H85.638L87.2,28.105H63.5Z"/><path d="M32.271,15.631h.151v-3H46.346v10H39.711l1.791,4H57.573l1.779-4H50.346v-10H64.422v5.055h6.139V13.63a1,1,0,0,0-1-1H68.422V5.1a.969.969,0,0,0-.463-.811C66.48,3.33,61.19.631,48.422.631,35.686.631,30.391,3.242,28.9,4.184A.966.966,0,0,0,28.422,5l.007,3.631h-.007v4H27.271a1,1,0,0,0-1,1v2Zm.151-8.749c2.187-.9,6.986-2.251,16-2.251,9.05,0,13.836,1.4,16,2.322v1.68h-32Z"/></svg>