<svg id="icons" xmlns="http://www.w3.org/2000/svg" viewBox="0 0 44 48"><path d="M22,.15A15.868,15.868,0,0,0,6.149,16c0,5.041,2.881,9.4,5.195,12.9C12.65,30.879,14,32.922,14,34v5.708a3.036,3.036,0,0,0,.111.81l1.483,5.292A3.011,3.011,0,0,0,18.483,48h7.035a3.01,3.01,0,0,0,2.888-2.19l1.481-5.287A2.981,2.981,0,0,0,30,39.708V34c0-1.078,1.35-3.121,2.656-5.1,2.314-3.5,5.2-7.861,5.2-12.9A15.868,15.868,0,0,0,22,.15ZM18,36h8v2H18Zm1.241,8-.561-2h6.64l-.561,2ZM29.319,26.7A24.766,24.766,0,0,0,26.366,32H17.634a24.766,24.766,0,0,0-2.953-5.3c-2.124-3.215-4.532-6.859-4.532-10.7a11.851,11.851,0,0,1,23.7,0C33.851,19.838,31.443,23.482,29.319,26.7Z"/><path d="M22.014,7.146a8.872,8.872,0,0,0-8.862,8.862,2,2,0,0,0,4,0,4.867,4.867,0,0,1,4.862-4.862,2,2,0,0,0,0-4Z"/></svg>