<svg id="icons" xmlns="http://www.w3.org/2000/svg" viewBox="0 0 44 44"><path d="M21.774,23.787a2.239,2.239,0,0,1-1.962-.942c-.323-.512-.865-1.369-1.8-1.369a1.5,1.5,0,0,0-1.5,1.558,3.231,3.231,0,0,0,1.02,2.127,5.67,5.67,0,0,0,2.852,1.513v1.151a1.568,1.568,0,0,0,1.588,1.5,1.628,1.628,0,0,0,1.559-1.754V26.542A4.461,4.461,0,0,0,27.038,22a4.037,4.037,0,0,0-2.393-3.87,13.229,13.229,0,0,0-2.208-.826,13.2,13.2,0,0,1-1.481-.517c-.686-.306-.966-.627-.966-1.109,0-.926.976-1.255,1.811-1.255.68,0,1.468.215,1.7.692a1.784,1.784,0,0,0,1.8,1.231A1.363,1.363,0,0,0,26.7,14.93a3.2,3.2,0,0,0-1.319-2.341,5.41,5.41,0,0,0-1.856-.971v-1.2a1.594,1.594,0,0,0-1.559-1.587,1.673,1.673,0,0,0-1.588,1.587v1.167a4.264,4.264,0,0,0-3.509,4.265,3.745,3.745,0,0,0,2.486,3.681,15.522,15.522,0,0,0,1.892.676,8.22,8.22,0,0,1,1.917.753,1.377,1.377,0,0,1,.7,1.213C23.864,23.287,22.814,23.787,21.774,23.787Z"/><path d="M38.981,3.935h-34a3,3,0,0,0-3,3v24a3,3,0,0,0,3,3h10v7.735L26.6,33.934H38.981a3,3,0,0,0,3-3v-24A3,3,0,0,0,38.981,3.935Zm-1,26H25.389L18.981,34.2V29.934h-13v-22h32Z"/></svg>