<svg id="icons" xmlns="http://www.w3.org/2000/svg" viewBox="0 0 48 48"><path d="M19.143,27.949h-18a1,1,0,0,0-1,1v18a1,1,0,0,0,1,1h18a1,1,0,0,0,1-1v-18A1,1,0,0,0,19.143,27.949Zm-3,16h-12v-12h12Z"/><path d="M17.277,26.449a1,1,0,0,0,1.366.366l15.589-9a1,1,0,0,0,.366-1.366L25.6.861A1,1,0,0,0,24.232.5l-15.589,9a1,1,0,0,0-.366,1.366Zm6.357-20.99,6,10.392-10.392,6-6-10.392Z"/><path d="M47.356,30.5l-15.588-9a1,1,0,0,0-1.366.366l-9,15.588a1,1,0,0,0,.366,1.366l15.588,9a1,1,0,0,0,1.367-.366l9-15.588A1,1,0,0,0,47.356,30.5Zm-10.6,12.356-10.392-6,6-10.392,10.392,6Z"/><path d="M20.3,18.69a.922.922,0,0,0,.557.437.908.908,0,0,0,.237.032,1,1,0,0,0,.5-.139.926.926,0,0,0,.468-1.009l-.269-1.266,2.127-1.228.947.845a1,1,0,0,0,1.163.1.948.948,0,0,0,.456-.581.987.987,0,0,0-.1-.743,1.311,1.311,0,0,0-.236-.292l-5.826-5.07a1.012,1.012,0,0,0-1.634.944l1.479,7.6A1.251,1.251,0,0,0,20.3,18.69Zm2.237-4.446-1.156.667-.432-2.076Z"/><path d="M7.942,42.9h2.3A2.628,2.628,0,0,0,13.062,40.1a2.267,2.267,0,0,0-1.251-2.2,2.146,2.146,0,0,0,.831-1.8c0-1.478-1.061-2.4-2.768-2.4H7.942a1,1,0,0,0-.993.982v7.22A1,1,0,0,0,7.942,42.9Zm.994-7.268h.746c.8,0,.961.283.961.77,0,.581-.281.83-.937.83h-.77Zm0,3.31H9.67c1.15,0,1.381.382,1.381,1,0,.708-.365,1-1.261,1H8.936Z"/><path d="M30.418,32.411c-1.126,1.95-.221,4.288,2.2,5.685a5.809,5.809,0,0,0,2.868.863,3.843,3.843,0,0,0,.582-.043,3.473,3.473,0,0,0,2.548-1.786,3.644,3.644,0,0,0,.238-3.187,1.54,1.54,0,0,0-.635-.751.95.95,0,0,0-.727-.09,1,1,0,0,0-.609.465,1.037,1.037,0,0,0,.1,1.165,1.345,1.345,0,0,1-.038,1.408,1.571,1.571,0,0,1-1.335.831,3.735,3.735,0,0,1-1.992-.589,3.776,3.776,0,0,1-1.514-1.462,1.557,1.557,0,0,1,.017-1.538,1.573,1.573,0,0,1,1.464-.821.973.973,0,0,0,.838-.48.989.989,0,0,0-.337-1.356h0a1.284,1.284,0,0,0-.594-.136A3.446,3.446,0,0,0,30.418,32.411Z"/></svg>