<svg id="icons" xmlns="http://www.w3.org/2000/svg" viewBox="0 0 44 44"><path d="M36,11v4H8V11H36m3-4H5A1,1,0,0,0,4,8V18a1,1,0,0,0,1,1H39a1,1,0,0,0,1-1V8a1,1,0,0,0-1-1Z"/><path d="M32.123,19v6.987a9.918,9.918,0,0,1-9.907,9.907A10.1,10.1,0,0,1,12.123,25.8V19h20m4-4h-28V25.8A14.093,14.093,0,0,0,22.216,39.894h0A13.907,13.907,0,0,0,36.123,25.987V15Z"/><path d="M10.734,0H9.123a1,1,0,0,0-1,1V8a1,1,0,0,0,1,1h1.611a1,1,0,0,0,1-1V1a1,1,0,0,0-1-1Z"/><path d="M22.929,37.894H21.318a1,1,0,0,0-1,1V44h3.611V38.894a1,1,0,0,0-1-1Z"/><path d="M34.734,0H33.123a1,1,0,0,0-1,1V8a1,1,0,0,0,1,1h1.611a1,1,0,0,0,1-1V1a1,1,0,0,0-1-1Z"/></svg>