<svg id="icons" xmlns="http://www.w3.org/2000/svg" viewBox="0 0 53 44"><path d="M21,24A12,12,0,1,1,33,12,12.014,12.014,0,0,1,21,24ZM21,4a8,8,0,1,0,8,8A8.009,8.009,0,0,0,21,4Z"/><path d="M50.976,21.875a38.969,38.969,0,0,1-8.313-4.15,2.972,2.972,0,0,0-3.334,0,39,39,0,0,1-8.314,4.149,3.019,3.019,0,0,0-2,2.95c.4,8.293,6.333,16.145,10.468,18.623a2.929,2.929,0,0,0,3.024,0c4.135-2.479,10.074-10.331,10.468-18.624h0A3.018,3.018,0,0,0,50.976,21.875ZM41,39.659l-.016-.013V21.426l.016-.01a43.745,43.745,0,0,0,7.93,3.966C48.336,31.347,44.175,37.379,41,39.659Z"/><path d="M32.769,44H2.542a1.007,1.007,0,0,1-.882-.522l-.13-.236A11.7,11.7,0,0,1,.173,39.53,10.992,10.992,0,0,1,11,26.7a9.989,9.989,0,0,1,4.281.867,17.77,17.77,0,0,0,5.719,1,22.459,22.459,0,0,0,5.3-.9,17.4,17.4,0,0,1,1.36,3.776A26.963,26.963,0,0,1,21,32.572a21.763,21.763,0,0,1-7.234-1.3A6.026,6.026,0,0,0,11,30.7a6.973,6.973,0,0,0-6.806,8.5A1.017,1.017,0,0,0,5.18,40H30.967a1.009,1.009,0,0,1,.746.33l1.8,1.987A1.007,1.007,0,0,1,32.769,44Z"/></svg>