<svg xmlns="http://www.w3.org/2000/svg" viewBox="0 0 53 44"><path d="M42.567,23.336a10.139,10.139,0,0,0-2.226.253l-3.948-8.834a1.984,1.984,0,0,0-1.842-1.184l-4,.032a2,2,0,0,0-1.984,2.015A1.975,1.975,0,0,0,30.583,17.6l2.692-.021,1.026,2.3-14.016,2a2,2,0,0,0-1.094.529l-2.932,2.781A10.129,10.129,0,1,0,20.368,35.47H26.04a2,2,0,0,0,1.508-.687L36.412,24.6l.279.624a10.123,10.123,0,1,0,5.876-1.888ZM10.433,39.6A6.134,6.134,0,1,1,13.26,28.031l-4.2,3.988a2,2,0,0,0,1.376,3.451h5.793A6.141,6.141,0,0,1,10.433,39.6Zm14.7-8.134H20.368a10.051,10.051,0,0,0-1.358-3.38l2.471-2.344,9.853-1.4ZM42.567,39.6A6.126,6.126,0,0,1,38.379,29l2.362,5.286a2,2,0,0,0,3.652-1.632l-2.365-5.291c.178-.016.357-.027.539-.027a6.134,6.134,0,1,1,0,12.268Z"/><path d="M17.382,21.6h4a2,2,0,0,0,0-4h-4a2,2,0,0,0,0,4Z"/></svg>