<svg id="icons" xmlns="http://www.w3.org/2000/svg" viewBox="0 0 44 44"><path d="M39.417,15.113a9.124,9.124,0,0,0,.083-1.164,9,9,0,0,0-9-9c-.147,0-.291.015-.436.022a8.985,8.985,0,0,0-16.128,0c-.146-.007-.289-.022-.436-.022a9,9,0,0,0-9,9,9.124,9.124,0,0,0,.083,1.164A9,9,0,0,0,9,31.949H20V38.2a1.85,1.85,0,0,0-.615.548l-2.84,4.364c-.3.461-.1.838.455.838H27c.55,0,.754-.377.454-.838l-2.84-4.364A1.846,1.846,0,0,0,24,38.2v-6.25H35a9,9,0,0,0,4.417-16.836ZM35,27.574H9a4.618,4.618,0,0,1-2.719-8.356,4.577,4.577,0,0,1,2.685-.893h2.05l-1.206-1.6a4.571,4.571,0,0,1-.932-2.7.717.717,0,0,0,0-.078,4.647,4.647,0,0,1,4.238-4.6c.128-.011.256-.021.387-.021a4.6,4.6,0,0,1,2.369.662l1.574.946L17.383,9.1l-.008-.148a4.624,4.624,0,1,1,9.248.034l-.007.114-.059,1.835,1.574-.946A4.6,4.6,0,0,1,30.5,9.324c.131,0,.259.01.387.021a4.641,4.641,0,0,1,4.238,4.574l0,.065v.029a4.572,4.572,0,0,1-.931,2.71l-1.208,1.6h2.052a4.58,4.58,0,0,1,2.685.893A4.618,4.618,0,0,1,35,27.574Z"/></svg>