<svg id="icons" xmlns="http://www.w3.org/2000/svg" viewBox="0 0 44 44"><path d="M6,27.836a5.972,5.972,0,0,0-6,5.945c0,3.283,6,10.055,6,10.055s6-6.772,6-10.055A5.972,5.972,0,0,0,6,27.836Zm0,7.893a1.982,1.982,0,1,1,2-1.982A1.991,1.991,0,0,1,6,35.729Z"/><path d="M34.075,26h-8a5,5,0,1,1,0-10H38s6-6.771,6-10.055a6,6,0,0,0-12,0c0,1.59,1.407,3.994,2.858,6.055H26.074a9,9,0,1,0,0,18h8a5,5,0,0,1,0,10l-22.9.091L8.1,44H34.075a9,9,0,0,0,0-18ZM38,3.93a1.982,1.982,0,1,1-2,1.982A1.991,1.991,0,0,1,38,3.93Z"/></svg>