<svg id="icons" xmlns="http://www.w3.org/2000/svg" viewBox="0 0 44 44"><path d="M32,17.9H28.247A10.2,10.2,0,0,0,22,13.9V9.575l6.96.279a1,1,0,0,0,1.04-1V6.936a1,1,0,0,0-1.04-1L22,6.215V2.9a1,1,0,0,0-1-1H19a1,1,0,0,0-1,1v3.32l-6.96-.278a1,1,0,0,0-1.04,1V8.854a1,1,0,0,0,1.04,1L18,9.575V13.9a10.207,10.207,0,0,0-6.248,4H0v4H14.127a6.2,6.2,0,0,1,11.745,0H32a8,8,0,0,1,8,8H36a4,4,0,0,0-4-4H25.872a6.2,6.2,0,0,1-11.745,0H0v4H11.752a10.185,10.185,0,0,0,16.495,0H32v4H44v-4A12.014,12.014,0,0,0,32,17.9Z"/></svg>