<svg id="icons" xmlns="http://www.w3.org/2000/svg" viewBox="0 0 44 44"><path d="M39.981,13.508h0a1.99,1.99,0,0,0-.173-.485c-.019-.038-.038-.075-.06-.113a1.993,1.993,0,0,0-.308-.419L27.644.592A2,2,0,0,0,26.224,0H5.981a2,2,0,0,0-2,2V42a2,2,0,0,0,2,2H38.019a2,2,0,0,0,2-2V13.9A2.022,2.022,0,0,0,39.981,13.508Zm-6.79-1.61H28.224V6.931ZM7.981,40V4H24.224v9.9a2,2,0,0,0,2,2h9.795V40Z"/><path d="M11.98,15.9h8a2,2,0,0,0,0-4h-8a2,2,0,0,0,0,4Z"/><path d="M11.98,10h8a2,2,0,0,0,0-4h-8a2,2,0,0,0,0,4Z"/><path d="M31.98,34H28.809l-3.415-3.414a2,2,0,0,0-3.191.5L20.71,27.271A2.059,2.059,0,0,0,18.818,26a2,2,0,0,0-1.853,1.325L14.573,34H11.98a2,2,0,0,0,0,4h4a2,2,0,0,0,1.883-1.325L18.93,33.7l1.188,3.032A2,2,0,0,0,21.89,38c.03,0,.06,0,.091,0a2,2,0,0,0,1.788-1.1l.759-1.519,2.038,2.038A2,2,0,0,0,27.98,38h4a2,2,0,0,0,0-4Z"/></svg>