<svg width="58" height="55" xmlns="http://www.w3.org/2000/svg" viewBox="0 0 58 55"><rect x="23.013" y="22.949" width="4" height="4" rx="1"/><rect x="31.013" y="22.949" width="4" height="4" rx="1"/><rect x="23.013" y="30.949" width="4" height="4" rx="1"/><rect x="8.013" y="34.95" width="4" height="4" rx="1"/><rect x="8.013" y="42.95" width="4" height="4" rx="1"/><rect x="46.013" y="34.95" width="4" height="4" rx="1"/><rect x="46.013" y="42.95" width="4" height="4" rx="1"/><rect x="31.013" y="30.949" width="4" height="4" rx="1"/><path d="M42.013,27.218V18.95l-11.5-7.077V7.949h9v-8h-12V11.873l-11.5,7.077v8.268H.039V54.949H57.961V27.218ZM30.513,2.949h6v2h-6Zm-14.5,48H4.039V31.218H16.01Zm16,0h-6v-4a3,3,0,1,1,6,0Zm6-23.731h0V50.949h-3v-4a6,6,0,1,0-12,0v4h-3V21.185l9-5.539,9,5.539ZM53.961,50.949H42.013V31.218H53.961Z"/></svg>