<svg id="icons" xmlns="http://www.w3.org/2000/svg" viewBox="0 0 46 44"><path d="M36.385,42.385a2,2,0,0,1-1.414-3.414,24.029,24.029,0,0,0,0-33.942A2,2,0,0,1,37.8,2.2a28.032,28.032,0,0,1,0,39.6A2,2,0,0,1,36.385,42.385Z"/><path d="M30.728,36.728a2,2,0,0,1-1.414-3.414,16,16,0,0,0,0-22.628,2,2,0,0,1,2.828-2.828,20,20,0,0,1,0,28.284A1.992,1.992,0,0,1,30.728,36.728Z"/><path d="M25.454,31.071a2,2,0,0,1-1.414-3.414,8.008,8.008,0,0,0,0-11.314,2,2,0,0,1,2.829-2.828,12.014,12.014,0,0,1,0,16.97A1.994,1.994,0,0,1,25.454,31.071Z"/><path d="M20.8,12.436h0M16,16.045v11.91l-1.33-1a5.035,5.035,0,0,0-3-1H4V18.047h7.666a5.032,5.032,0,0,0,3-1l1.33-1m3-7.009a.985.985,0,0,0-.6.2l-6.132,4.608a1,1,0,0,1-.6.2H1a1,1,0,0,0-1,1V28.953a1,1,0,0,0,1,1H11.666a1,1,0,0,1,.6.2L18.4,34.761a.985.985,0,0,0,.6.2,1,1,0,0,0,1-1V10.038a1,1,0,0,0-1-1Z"/></svg>